<svg width="54" height="53" viewBox="0 0 54 53" fill="none" xmlns="http://www.w3.org/2000/svg">
<g clip-path="url(#clip0_1081_567)">
<g clip-path="url(#clip1_1081_567)">
<path d="M12.6915 18.0477C12.2878 17.6439 11.6315 17.6439 11.2279 18.0477C10.8231 18.4524 10.8231 19.1077 11.2279 19.5114C11.6316 19.9161 12.2879 19.9161 12.6915 19.5114C13.0961 19.1077 13.0961 18.4524 12.6915 18.0477Z" fill="white"/>
<path d="M26.7101 46.3454C27.1665 45.7272 27.4131 44.9825 27.4131 44.1994C27.4131 42.2017 25.7879 40.5764 23.7902 40.5764H6.19315C5.22497 40.5764 4.31517 40.9532 3.63124 41.6373C2.94701 42.3214 2.57021 43.2312 2.57021 44.1994C2.57021 45.0015 2.83272 45.7433 3.27567 46.3442C1.62739 47.2108 0.5 48.9395 0.5 50.9276V51.9627C0.5 52.5344 0.963543 52.9979 1.53516 52.9979H28.4482C29.0198 52.9979 29.4833 52.5344 29.4833 51.9627V50.9276C29.4833 48.9405 28.3571 47.2125 26.7101 46.3454ZM5.09506 43.1011C5.38811 42.8079 5.77816 42.6465 6.19315 42.6465H23.7902C24.6464 42.6465 25.3428 43.3431 25.3428 44.1992C25.3428 44.6143 25.1813 45.0042 24.8882 45.2973C24.5951 45.5905 24.2051 45.7519 23.7901 45.7519H6.19315C5.33697 45.7519 4.64052 45.0553 4.64052 44.1993C4.64052 43.7843 4.8019 43.3942 5.09506 43.1011ZM2.57021 50.9276C2.57021 49.2153 3.96332 47.8222 5.67557 47.8222H6.19315H23.7902H24.3078C26.02 47.8222 27.4131 49.2153 27.4131 50.9276H2.57021Z" fill="white"/>
<path d="M52.5395 43.4893C52.188 42.9445 51.7685 42.4627 51.2927 42.0574L46.4559 37.8388C46.4182 37.7821 46.3746 37.7282 46.3246 37.6782C46.2405 37.5943 46.1453 37.5288 46.044 37.4797L43.119 34.9286L29.5802 23.1184C30.1344 22.539 30.4396 21.7813 30.4396 20.9757C30.4396 20.1457 30.1165 19.3657 29.5292 18.7786C29.2732 18.5228 28.9821 18.3216 28.671 18.1743L29.9235 16.9218C30.2736 17.0149 30.6333 17.0625 30.9934 17.0625C32.0535 17.0624 33.1137 16.6589 33.9207 15.8519C34.7031 15.0696 35.1339 14.0298 35.1339 12.9239C35.1339 11.8181 34.7031 10.7783 33.9208 9.99599L25.1377 1.2131C24.3554 0.430832 23.3155 0 22.2094 0C21.1037 0 20.0641 0.430832 19.2819 1.2131C18.2008 2.29422 17.8449 3.82925 18.212 5.21036L5.71507 17.7072C5.36974 17.6154 5.01044 17.5669 4.64337 17.5669C3.537 17.5669 2.4976 17.9974 1.71595 18.779C0.10152 20.3934 0.10152 23.0203 1.71595 24.6349L10.4989 33.4179C11.3063 34.2252 12.3666 34.6288 13.4269 34.6288C14.4873 34.6288 15.5476 34.2252 16.3549 33.4179C17.436 32.3367 17.7919 30.8018 17.4249 29.4207L18.6748 28.1706C18.825 28.4843 19.0288 28.7737 19.282 29.0268C19.8686 29.6133 20.6483 29.9364 21.4781 29.9364C22.283 29.9364 23.0403 29.6318 23.6205 29.0782L38.0408 45.6462C38.0806 45.7084 38.1269 45.7675 38.1812 45.8217C38.1997 45.8402 38.2194 45.8571 38.239 45.8739L42.536 50.811C42.6428 50.937 42.757 51.0611 42.8755 51.1796C44.0557 52.3593 45.6145 52.9996 47.2511 52.9996C47.5396 52.9996 47.8308 52.9797 48.1224 52.9393C50.0715 52.6696 51.756 51.5036 52.7438 49.7399C53.8258 47.8069 53.7453 45.3529 52.5395 43.4893ZM20.7459 2.67702C21.1371 2.28583 21.657 2.07031 22.2095 2.07031C22.7626 2.07031 23.2828 2.28583 23.6739 2.67702L32.457 11.46C32.8482 11.8512 33.0636 12.3712 33.0636 12.924C33.0636 13.4769 32.8482 13.9969 32.4569 14.388C31.65 15.1952 30.3368 15.1952 29.5299 14.388L20.7465 5.60465C20.7463 5.60444 20.7462 5.60434 20.7459 5.60413C19.9388 4.79712 19.9388 3.48403 20.7459 2.67702ZM14.891 31.954C14.0838 32.7612 12.7701 32.7613 11.9629 31.954L3.17987 23.171C2.37255 22.3637 2.37255 21.0503 3.17987 20.2429C3.57033 19.8523 4.09018 19.6372 4.64337 19.6372C5.19646 19.6372 5.716 19.8522 6.10636 20.2425L14.8909 29.027C15.6981 29.8339 15.6981 31.1471 14.891 31.954ZM19.2492 24.6686L16.3548 27.5631L7.5709 18.7792L19.2819 7.06794L28.0657 15.8519L25.1661 18.7516C25.1566 18.7605 25.1474 18.7692 25.1375 18.7791L19.2849 24.6318C19.2728 24.6437 19.2611 24.6561 19.2492 24.6686ZM22.9453 26.828C22.9433 26.8301 22.9413 26.8321 22.9392 26.8341L22.2103 27.5631C22.0147 27.7585 21.7548 27.8662 21.478 27.8662C21.2013 27.8662 20.9413 27.7585 20.7458 27.563C20.5501 27.3674 20.4423 27.1071 20.4423 26.8302C20.4423 26.5592 20.5458 26.3043 20.7334 26.1119L26.6132 20.2321C27.0162 19.8402 27.6677 19.8451 28.066 20.2429C28.2616 20.4385 28.3694 20.6988 28.3694 20.9757C28.3694 21.2524 28.2619 21.5119 28.0659 21.7074L27.3411 22.4321C27.3362 22.437 27.3312 22.442 27.3263 22.4469L22.9453 26.828ZM25.0889 27.6122L28.1143 24.5868L40.9235 35.7598L36.2494 40.434L25.0889 27.6122ZM37.6117 41.9994L42.4872 37.1238L44.051 38.4878L38.9741 43.5649L37.6117 41.9994ZM50.9375 48.7285C50.2694 49.9213 49.14 50.7086 47.8387 50.8887C46.5404 51.0684 45.2648 50.6408 44.3391 49.7156C44.2595 49.6361 44.1833 49.5531 44.1123 49.4691C44.109 49.4651 44.1057 49.4612 44.1023 49.4574L40.3364 45.1302L45.6147 39.8518L49.9365 43.6215C49.9397 43.6244 49.943 43.6272 49.9465 43.6301C50.27 43.9051 50.557 44.2354 50.8006 44.6129C51.5834 45.8224 51.6382 47.4766 50.9375 48.7285Z" fill="white"/>
<path d="M20.0113 10.7275C19.607 10.3233 18.9518 10.3233 18.5474 10.7275L14.1555 15.1194C13.7512 15.5237 13.7512 16.1791 14.1555 16.5833C14.3576 16.7854 14.6225 16.8865 14.8874 16.8865C15.1523 16.8865 15.4172 16.7853 15.6194 16.5833L20.0113 12.1913C20.4156 11.7872 20.4156 11.1318 20.0113 10.7275Z" fill="white"/>
</g>
</g>
<defs>
<clipPath id="clip0_1081_567">
<rect width="53" height="53" fill="white" transform="translate(0.5)"/>
</clipPath>
<clipPath id="clip1_1081_567">
<rect width="53" height="53" fill="white" transform="translate(0.5)"/>
</clipPath>
</defs>
</svg>
