<svg width="54" height="53" viewBox="0 0 54 53" fill="current" xmlns="http://www.w3.org/2000/svg">
<g clip-path="url(#clip0_1081_548)">
<path d="M29.6606 43.3295H25.3391C25.1465 43.3295 24.9619 43.2538 24.8257 43.1191C24.6895 42.9843 24.613 42.8015 24.613 42.6109V7.90171C24.613 7.14392 24.9172 6.41716 25.4586 5.88131C26 5.34547 26.7342 5.04443 27.4999 5.04443C28.2655 5.04443 28.9998 5.34547 29.5411 5.88131C30.0825 6.41716 30.3867 7.14392 30.3867 7.90171V42.6116C30.3865 42.8021 30.3099 42.9847 30.1738 43.1193C30.0376 43.2539 29.853 43.3295 29.6606 43.3295ZM26.0652 41.8923H28.9346V7.90171C28.9346 7.5251 28.7834 7.16392 28.5143 6.89761C28.2453 6.63131 27.8804 6.4817 27.4999 6.4817C27.1193 6.4817 26.7544 6.63131 26.4854 6.89761C26.2163 7.16392 26.0652 7.5251 26.0652 7.90171V41.8923Z" fill="#current"/>
<path d="M10.0019 14.6785H7.50933C6.91795 14.668 6.35438 14.4281 5.93991 14.0104C5.52544 13.5928 5.29321 13.0307 5.29321 12.4453C5.29321 11.8599 5.52544 11.2979 5.93991 10.8802C6.35438 10.4626 6.91795 10.2227 7.50933 10.2122H9.6483C9.84086 10.2122 10.0255 10.2879 10.1617 10.4226C10.2979 10.5574 10.3744 10.7402 10.3744 10.9308C10.3744 11.1214 10.2979 11.3042 10.1617 11.4389C10.0255 11.5737 9.84086 11.6494 9.6483 11.6494H7.50933C7.30025 11.6556 7.10184 11.7422 6.95617 11.8908C6.8105 12.0394 6.72902 12.2383 6.72902 12.4453C6.72902 12.6523 6.8105 12.8512 6.95617 12.9998C7.10184 13.1484 7.30025 13.235 7.50933 13.2412H10.0019C10.1945 13.2412 10.3791 13.3169 10.5153 13.4517C10.6515 13.5864 10.728 13.7692 10.728 13.9598C10.728 14.1504 10.6515 14.3332 10.5153 14.468C10.3791 14.6027 10.1945 14.6785 10.0019 14.6785Z" fill="#current"/>
<path d="M25.3394 14.6785H14.394C14.2015 14.6785 14.0168 14.6027 13.8806 14.468C13.7445 14.3332 13.668 14.1504 13.668 13.9598C13.668 13.7692 13.7445 13.5864 13.8806 13.4517C14.0168 13.3169 14.2015 13.2412 14.394 13.2412H24.6133V11.6494H14.7469C14.5543 11.6494 14.3697 11.5737 14.2335 11.4389C14.0973 11.3042 14.0208 11.1214 14.0208 10.9308C14.0208 10.7402 14.0973 10.5574 14.2335 10.4226C14.3697 10.2879 14.5543 10.2122 14.7469 10.2122H25.3394C25.5319 10.2122 25.7166 10.2879 25.8528 10.4226C25.9889 10.5574 26.0654 10.7402 26.0654 10.9308V13.9598C26.0654 14.1504 25.9889 14.3332 25.8528 14.468C25.7166 14.6027 25.5319 14.6785 25.3394 14.6785Z" fill="#current"/>
<path d="M40.4479 14.6785H29.6609C29.4683 14.6785 29.2836 14.6027 29.1475 14.468C29.0113 14.3332 28.9348 14.1504 28.9348 13.9598V10.9308C28.9348 10.7402 29.0113 10.5574 29.1475 10.4226C29.2836 10.2879 29.4683 10.2122 29.6609 10.2122H40.0951C40.2876 10.2122 40.4723 10.2879 40.6085 10.4226C40.7446 10.5574 40.8211 10.7402 40.8211 10.9308C40.8211 11.1214 40.7446 11.3042 40.6085 11.4389C40.4723 11.5737 40.2876 11.6494 40.0951 11.6494H30.3869V13.2412H40.4479C40.6405 13.2412 40.8252 13.3169 40.9613 13.4517C41.0975 13.5864 41.174 13.7692 41.174 13.9598C41.174 14.1504 41.0975 14.3332 40.9613 14.468C40.8252 14.6027 40.6405 14.6785 40.4479 14.6785Z" fill="#current"/>
<path d="M47.4833 14.6785H44.998C44.8055 14.6785 44.6208 14.6027 44.4846 14.468C44.3485 14.3332 44.272 14.1504 44.272 13.9598C44.272 13.7692 44.3485 13.5864 44.4846 13.4517C44.6208 13.3169 44.8055 13.2412 44.998 13.2412H47.4833C47.6924 13.235 47.8908 13.1484 48.0365 12.9998C48.1822 12.8512 48.2636 12.6523 48.2636 12.4453C48.2636 12.2383 48.1822 12.0394 48.0365 11.8908C47.8908 11.7422 47.6924 11.6556 47.4833 11.6494H45.356C45.1634 11.6494 44.9787 11.5737 44.8426 11.4389C44.7064 11.3042 44.6299 11.1214 44.6299 10.9308C44.6299 10.7402 44.7064 10.5574 44.8426 10.4226C44.9787 10.2879 45.1634 10.2122 45.356 10.2122H47.4833C48.0747 10.2227 48.6383 10.4626 49.0528 10.8802C49.4672 11.2979 49.6995 11.8599 49.6995 12.4453C49.6995 13.0307 49.4672 13.5928 49.0528 14.0104C48.6383 14.4281 48.0747 14.668 47.4833 14.6785Z" fill="#current"/>
<path d="M36.6956 47.9546H18.3045C18.1943 47.9546 18.0856 47.9297 17.9865 47.8818C17.8875 47.834 17.8007 47.7645 17.7329 47.6785C17.665 47.5926 17.6178 47.4925 17.5948 47.3858C17.5718 47.2791 17.5737 47.1687 17.6003 47.0628C17.8996 45.6416 18.6706 44.3603 19.7905 43.4227C20.9103 42.4852 22.3148 41.9452 23.7805 41.8887H31.2197C32.6853 41.9452 34.0898 42.4852 35.2097 43.4227C36.3296 44.3603 37.1005 45.6416 37.3999 47.0628C37.4265 47.1687 37.4283 47.2791 37.4053 47.3858C37.3824 47.4925 37.3352 47.5926 37.2673 47.6785C37.1994 47.7645 37.1127 47.834 37.0136 47.8818C36.9146 47.9297 36.8058 47.9546 36.6956 47.9546ZM19.3087 46.5174H35.6915C35.3459 45.6094 34.7372 44.8225 33.9417 44.2554C33.1462 43.6883 32.1993 43.3663 31.2197 43.3295H23.7805C22.8008 43.3663 21.8539 43.6883 21.0585 44.2554C20.263 44.8225 19.6543 45.6094 19.3087 46.5174Z" fill="#current"/>
<path d="M38.6618 47.9546H16.3384C16.1458 47.9546 15.9611 47.8789 15.825 47.7441C15.6888 47.6093 15.6123 47.4266 15.6123 47.236C15.6123 47.0454 15.6888 46.8626 15.825 46.7278C15.9611 46.593 16.1458 46.5173 16.3384 46.5173H38.6618C38.8543 46.5173 39.039 46.593 39.1752 46.7278C39.3113 46.8626 39.3878 47.0454 39.3878 47.236C39.3878 47.4266 39.3113 47.6093 39.1752 47.7441C39.039 47.8789 38.8543 47.9546 38.6618 47.9546Z" fill="#current"/>
<path d="M52.186 32.6973H33.4238C33.3023 32.6974 33.1827 32.6673 33.076 32.6098C32.9692 32.5522 32.8788 32.469 32.813 32.3679C32.7471 32.2668 32.708 32.1509 32.6992 32.0309C32.6904 31.911 32.7121 31.7907 32.7624 31.6812L40.7345 14.309C40.7738 14.2228 40.8299 14.1452 40.8995 14.0805C40.9691 14.0157 41.051 13.9653 41.1404 13.9319C41.2297 13.8986 41.3249 13.883 41.4203 13.8861C41.5158 13.8892 41.6097 13.911 41.6967 13.9501C41.7836 13.9891 41.862 14.0448 41.9271 14.1139C41.9923 14.183 42.0431 14.2642 42.0765 14.3527C42.11 14.4413 42.1254 14.5355 42.122 14.63C42.1186 14.7245 42.0964 14.8174 42.0567 14.9033L34.5507 31.2601H51.0562L43.5567 14.9033C43.5174 14.8173 43.4955 14.7245 43.4923 14.6302C43.4892 14.5359 43.5049 14.4418 43.5384 14.3535C43.572 14.2651 43.6228 14.1842 43.688 14.1153C43.7532 14.0464 43.8315 13.9908 43.9183 13.9519C44.0052 13.9129 44.0989 13.8912 44.1943 13.8881C44.2896 13.885 44.3846 13.9005 44.4739 13.9337C44.5631 13.967 44.6449 14.0173 44.7145 14.0818C44.7841 14.1463 44.8402 14.2238 44.8796 14.3097L52.8438 31.6819C52.8938 31.7911 52.9154 31.911 52.9067 32.0306C52.898 32.1501 52.8591 32.2657 52.7937 32.3666C52.7283 32.4675 52.6385 32.5507 52.5323 32.6085C52.4262 32.6662 52.3071 32.6968 52.186 32.6973Z" fill="#current"/>
<path d="M42.8793 41.8635H42.7282C36.9147 41.8635 32.6948 37.7069 32.6948 31.9794C32.6948 31.7888 32.7713 31.606 32.9075 31.4712C33.0436 31.3365 33.2283 31.2607 33.4209 31.2607H52.1859C52.3784 31.2607 52.5631 31.3365 52.6993 31.4712C52.8354 31.606 52.9119 31.7888 52.9119 31.9794C52.9119 37.7105 48.6921 41.8635 42.8793 41.8635ZM34.1724 32.698C34.4962 37.2843 37.9224 40.4262 42.7282 40.4262H42.8793C47.6843 40.4262 51.1113 37.2843 51.4344 32.698H34.1724Z" fill="#current"/>
<path d="M42.8039 15.7033C42.0979 15.7034 41.4077 15.4963 40.8206 15.1082C40.2336 14.7201 39.776 14.1683 39.5057 13.5228C39.2355 12.8772 39.1647 12.1668 39.3024 11.4815C39.4401 10.7961 39.7801 10.1665 40.2793 9.67243C40.7785 9.17831 41.4146 8.84183 42.107 8.70554C42.7995 8.56925 43.5172 8.63927 44.1694 8.90675C44.8217 9.17423 45.3791 9.62715 45.7712 10.2082C46.1634 10.7893 46.3726 11.4724 46.3725 12.1712C46.3713 13.1076 45.995 14.0054 45.326 14.6675C44.657 15.3296 43.75 15.7021 42.8039 15.7033ZM42.8039 10.0757C42.3851 10.0755 41.9757 10.1983 41.6275 10.4285C41.2792 10.6587 41.0077 10.9859 40.8474 11.3688C40.687 11.7517 40.645 12.173 40.7266 12.5796C40.8082 12.9861 41.0098 13.3596 41.3059 13.6527C41.6019 13.9459 41.9792 14.1455 42.3899 14.2264C42.8006 14.3073 43.2263 14.2659 43.6132 14.1073C44.0001 13.9487 44.3308 13.6801 44.5635 13.3355C44.7962 12.9909 44.9204 12.5857 44.9204 12.1712C44.9198 11.6157 44.6966 11.0832 44.2999 10.6903C43.9031 10.2975 43.3651 10.0764 42.8039 10.0757Z" fill="#current"/>
<path d="M21.5754 32.6974H2.81399C2.69251 32.6974 2.57298 32.6671 2.46635 32.6095C2.35971 32.5519 2.26939 32.4688 2.20365 32.3677C2.1379 32.2666 2.09884 32.1507 2.09004 32.0308C2.08124 31.9109 2.10299 31.7907 2.15328 31.6812L10.1269 14.3091C10.2065 14.1354 10.3525 14.0002 10.5329 13.9332C10.7132 13.8661 10.9131 13.8727 11.0885 13.9515C11.264 14.0303 11.4006 14.1749 11.4683 14.3534C11.536 14.5319 11.5294 14.7297 11.4497 14.9034L3.94374 31.2601H20.4492L12.9498 14.9034C12.9081 14.8171 12.8842 14.7235 12.8795 14.628C12.8748 14.5325 12.8894 14.437 12.9225 14.3472C12.9556 14.2574 13.0064 14.175 13.072 14.1048C13.1377 14.0347 13.2168 13.9782 13.3048 13.9387C13.3928 13.8992 13.4878 13.8775 13.5844 13.8748C13.6809 13.8721 13.7771 13.8885 13.8671 13.9231C13.9572 13.9577 14.0394 14.0097 14.1089 14.0761C14.1784 14.1424 14.2338 14.2219 14.2719 14.3098L22.2368 31.682C22.287 31.7914 22.3086 31.9116 22.2997 32.0315C22.2907 32.1514 22.2516 32.2671 22.1858 32.3682C22.12 32.4692 22.0296 32.5523 21.923 32.6098C21.8163 32.6673 21.6968 32.6974 21.5754 32.6974Z" fill="#current"/>
<path d="M12.2716 41.8635H12.1206C6.30775 41.8635 2.08789 37.7105 2.08789 31.9794C2.08789 31.7888 2.16439 31.606 2.30055 31.4712C2.43671 31.3365 2.62139 31.2607 2.81395 31.2607H21.579C21.7715 31.2607 21.9562 31.3365 22.0924 31.4712C22.2285 31.606 22.305 31.7888 22.305 31.9794C22.305 37.7105 18.0852 41.8635 12.2716 41.8635ZM3.56542 32.698C3.88852 37.2843 7.31552 40.4262 12.1206 40.4262H12.2716C17.0774 40.4262 20.5037 37.2843 20.8275 32.698H3.56542Z" fill="#current"/>
<path d="M12.196 15.7033C11.49 15.7033 10.7999 15.4961 10.2129 15.1078C9.62596 14.7196 9.16847 14.1678 8.89834 13.5223C8.62821 12.8767 8.55757 12.1663 8.69535 11.481C8.83313 10.7957 9.17314 10.1662 9.67239 9.67217C10.1716 9.17813 10.8077 8.84172 11.5001 8.70549C12.1926 8.56926 12.9102 8.63932 13.5624 8.90682C14.2146 9.17432 14.772 9.62724 15.1641 10.2083C15.5563 10.7894 15.7655 11.4725 15.7653 12.1712C15.7642 13.1077 15.3877 14.0056 14.7186 14.6678C14.0494 15.3299 13.1422 15.7023 12.196 15.7033ZM12.196 10.0757C11.7773 10.0757 11.3679 10.1986 11.0198 10.4288C10.6716 10.6591 10.4002 10.9864 10.24 11.3693C10.0797 11.7522 10.0378 12.1735 10.1195 12.58C10.2012 12.9865 10.4028 13.3599 10.6989 13.653C10.995 13.946 11.3723 14.1456 11.783 14.2265C12.1937 14.3073 12.6194 14.2658 13.0062 14.1072C13.3931 13.9486 13.7238 13.68 13.9564 13.3354C14.189 12.9908 14.3132 12.5857 14.3132 12.1712C14.3126 11.6156 14.0894 11.0829 13.6925 10.6901C13.2955 10.2972 12.7574 10.0762 12.196 10.0757Z" fill="#current"/>
</g>
<defs>
<clipPath id="clip0_1081_548">
<rect width="51" height="43" fill="white" transform="translate(2 5)"/>
</clipPath>
</defs>
</svg>
