<svg width="149" height="142" viewBox="0 0 149 142" fill="none" xmlns="http://www.w3.org/2000/svg">
<g clip-path="url(#clip0_964_13720)">
<path d="M132.19 54.5545C127.495 54.5545 123.363 56.5153 120.327 59.583C109.152 51.7715 94.0953 46.743 77.4111 46.2053L86.0819 6.73628L113.691 12.9982C113.691 19.8294 119.2 25.3955 125.961 25.3955C132.848 25.3955 138.388 19.6712 138.388 12.8401C138.388 6.00888 132.879 0.284607 125.961 0.284607C121.141 0.284607 116.977 3.22581 114.911 7.24229L84.4228 0.41111C82.889 -2.563e-05 81.3865 1.10688 80.9796 2.65654L71.4636 46.1737C54.9046 46.8695 40.0046 51.898 28.7983 59.7095C25.7619 56.5153 21.4735 54.5545 16.7781 54.5545C-0.626108 54.5545 -6.32317 78.1474 9.60982 86.212C9.04637 88.7104 8.79595 91.367 8.79595 94.0236C8.79595 120.526 38.3455 142 74.6252 142C111.061 142 140.611 120.526 140.611 94.0236C140.611 91.367 140.329 88.5839 139.64 86.0855C155.26 77.9893 149.501 54.5545 132.19 54.5545ZM34.8709 87.8882C34.8709 80.9305 40.3802 75.3327 47.2981 75.3327C54.0594 75.3327 59.5686 80.8988 59.5686 87.8882C59.5686 94.7193 54.0594 100.285 47.2981 100.285C40.4115 100.317 34.8709 94.7193 34.8709 87.8882ZM101.952 117.458C90.5581 128.97 58.4104 128.97 47.0163 117.458C45.7642 116.351 45.7642 114.391 47.0163 113.126C48.1119 112.019 50.0527 112.019 51.1483 113.126C59.8504 122.139 88.7113 122.297 97.789 113.126C98.8846 112.019 100.825 112.019 101.921 113.126C103.204 114.391 103.204 116.351 101.952 117.458ZM101.702 100.317C94.9405 100.317 89.4312 94.751 89.4312 87.9198C89.4312 80.9621 94.9405 75.3643 101.702 75.3643C108.588 75.3643 114.129 80.9305 114.129 87.9198C114.098 94.7193 108.588 100.317 101.702 100.317Z" fill="#737373"/>
</g>
<defs>
<clipPath id="clip0_964_13720">
<rect width="149" height="142" fill="white"/>
</clipPath>
</defs>
</svg>
