<svg width="151" height="92" viewBox="0 0 151 92" fill="none" xmlns="http://www.w3.org/2000/svg">
<g clip-path="url(#clip0_964_13717)">
<path d="M42.2329 33.3703C42.0613 38.7687 44.7591 41.1593 44.8258 42.6776C44.7941 42.9866 44.6888 43.2835 44.5188 43.5435C44.3488 43.8035 44.119 44.019 43.8487 44.172L40.7983 46.3075C40.4035 46.5843 39.9381 46.743 39.4565 46.7651C39.3541 46.7604 37.5047 47.2013 34.5758 40.6612C32.7888 42.892 30.5152 44.6843 27.929 45.9009C25.3427 47.1175 22.5124 47.7262 19.6547 47.6804C15.7749 47.8925 5.26032 45.4781 5.8013 34.2832C5.42238 25.1594 13.9184 19.4916 22.7052 19.9707C24.3972 19.9755 27.8528 20.0589 33.9037 21.4651V17.7422C34.5448 11.4357 30.4005 6.54253 23.2247 7.27663C22.6527 7.27901 18.6013 7.15745 12.3002 9.68626C10.5462 10.4919 10.3222 10.3584 9.73831 10.3584C7.97238 10.3584 8.69924 5.2388 9.03766 4.59051C10.2793 3.06512 17.5837 0.216937 24.7523 0.257455C29.5455 -0.16649 34.313 1.31295 38.0242 4.376C39.5329 6.06366 40.6838 8.03961 41.4076 10.1845C42.1314 12.3294 42.4129 14.5988 42.2353 16.8556L42.2329 33.3703ZM21.6375 41.0902C29.3662 40.9782 32.6383 36.3305 33.3842 33.8279C33.9705 31.4326 33.8727 29.9167 33.8727 27.2973C31.5682 26.7444 28.2508 26.1414 24.4449 26.1366C20.8344 25.8649 14.2401 27.4785 14.4975 33.8255C14.202 37.8273 17.1476 41.3095 21.6375 41.0902ZM62.3708 46.584C60.4976 46.7556 59.6254 45.4256 59.3489 44.1124L47.4807 4.86937C47.2495 4.20678 47.097 3.52274 47.0231 2.8244C46.9793 2.53649 47.0516 2.24297 47.2241 2.00834C47.3966 1.77372 47.6552 1.61717 47.943 1.5731C48.0002 1.56357 47.4354 1.5731 53.2456 1.5731C55.338 1.36336 56.0196 3.01031 56.2365 4.04471L64.7492 37.6104L72.6518 4.04471C72.7781 3.27725 73.3525 1.40626 75.7023 1.60409H79.7918C80.309 1.56119 82.4395 1.48492 82.8137 4.07569L90.7783 38.0704L99.565 4.07569C99.6794 3.55611 100.213 1.36575 102.587 1.60409H107.287C107.489 1.5731 108.752 1.41103 108.538 3.64906C108.435 4.08999 109.35 1.10834 95.9664 44.1434C95.6924 45.4566 94.8177 46.7866 92.9446 46.615H88.4904C85.8832 46.8891 85.509 44.3126 85.4685 44.0528L77.5659 11.369L69.7539 44.0194C69.7157 44.2792 69.3416 46.8557 66.732 46.5816H62.3708V46.584ZM127.546 47.9258C126.145 47.9282 119.462 47.8543 113.876 44.9966C113.32 44.761 112.846 44.3654 112.514 43.8601C112.183 43.3547 112.009 42.7623 112.015 42.158V39.5958C112.015 37.5818 113.492 37.9512 114.119 38.192C116.512 39.1596 118.047 39.8937 120.985 40.48C129.719 42.2748 133.561 39.9319 134.502 39.4123C137.636 37.5508 137.884 33.2917 135.754 31.0822C133.256 28.9872 132.064 28.9085 123.092 26.077C121.986 25.7696 112.677 22.8332 112.656 13.5975C112.51 6.86668 118.626 0.207403 129.224 0.262221C132.243 0.259838 140.289 1.24657 142.467 3.98512C142.789 4.48326 142.948 5.06958 142.925 5.66305V8.07269C142.925 9.13093 142.538 9.66005 141.764 9.66005C139.927 9.45507 136.666 6.99777 130.048 7.09787C128.406 7.01207 120.542 7.31476 120.894 13.0493C120.792 17.5682 127.236 19.2628 127.973 19.4583C136.662 22.0729 139.567 22.5067 143.015 26.5084C147.1 31.8115 144.898 38.0204 144.052 39.7221C139.505 48.6576 127.746 47.9306 127.546 47.9258ZM137.126 72.9184C120.437 85.2454 96.2095 91.807 75.5235 91.807C47.6119 91.9911 20.6409 81.7268 -0.08753 63.032C-1.64374 61.6281 -0.271035 59.7047 1.62121 60.7749C24.6152 73.9293 50.6492 80.8411 77.1393 80.8242C96.9215 80.7181 116.488 76.7047 134.715 69.0144C137.522 67.8226 139.903 70.8734 137.126 72.9184ZM144.083 64.984C141.947 62.2383 129.955 63.7017 124.586 64.3428C122.968 64.5264 122.694 63.1225 124.159 62.0857C133.709 55.3717 149.393 57.2951 151.194 59.5522C152.993 61.8093 150.706 77.5255 141.766 85.0333C140.394 86.194 139.08 85.5815 139.691 84.0561C141.702 78.9913 146.218 67.7321 144.083 64.984Z" fill="#737373"/>
</g>
<defs>
<clipPath id="clip0_964_13717">
<rect width="153" height="92" fill="white" transform="translate(-1)"/>
</clipPath>
</defs>
</svg>
