<svg width="54" height="53" viewBox="0 0 54 53" fill="none" xmlns="http://www.w3.org/2000/svg">
<g clip-path="url(#clip0_1081_584)">
<path d="M19.7899 12.4766H12.0964C11.3844 12.4766 10.8074 13.0536 10.8074 13.7656C10.8074 14.4776 11.3844 15.0547 12.0964 15.0547H19.7899C20.5015 15.0547 21.0789 14.4776 21.0789 13.7656C21.0789 13.0536 20.5015 12.4766 19.7899 12.4766Z" fill="#295C7A"/>
<path d="M19.7899 17.6331H12.0964C11.3844 17.6331 10.8074 18.2101 10.8074 18.9221C10.8074 19.6341 11.3844 20.2112 12.0964 20.2112H19.7899C20.5015 20.2112 21.0789 19.6341 21.0789 18.9221C21.0789 18.2101 20.5015 17.6331 19.7899 17.6331Z" fill="#295C7A"/>
<path d="M19.7899 22.7898H12.0964C11.3844 22.7898 10.8074 23.3669 10.8074 24.0789C10.8074 24.7909 11.3844 25.3679 12.0964 25.3679H19.7899C20.5015 25.3679 21.0789 24.7909 21.0789 24.0789C21.0789 23.3669 20.5015 22.7898 19.7899 22.7898Z" fill="#295C7A"/>
<path d="M19.7899 27.9463H12.0964C11.3844 27.9463 10.8074 28.5233 10.8074 29.2354C10.8074 29.9474 11.3844 30.5244 12.0964 30.5244H19.7899C20.5015 30.5244 21.0789 29.9474 21.0789 29.2354C21.0789 28.5233 20.5015 27.9463 19.7899 27.9463Z" fill="#295C7A"/>
<path d="M19.7899 33.1892H12.0964C11.3844 33.1892 10.8074 33.7666 10.8074 34.4783C10.8074 35.1903 11.3844 35.7673 12.0964 35.7673H19.7899C20.5015 35.7673 21.0789 35.1903 21.0789 34.4783C21.0789 33.7666 20.5015 33.1892 19.7899 33.1892Z" fill="#295C7A"/>
<path d="M24.1189 15.0547H31.8123C32.5243 15.0547 33.1014 14.4776 33.1014 13.7656C33.1014 13.0536 32.5243 12.4766 31.8123 12.4766H24.1189C23.4072 12.4766 22.8298 13.0536 22.8298 13.7656C22.8298 14.4776 23.4072 15.0547 24.1189 15.0547Z" fill="#295C7A"/>
<path d="M24.1189 20.2112H31.8123C32.5243 20.2112 33.1014 19.6341 33.1014 18.9221C33.1014 18.2101 32.5243 17.6331 31.8123 17.6331H24.1189C23.4072 17.6331 22.8298 18.2101 22.8298 18.9221C22.8298 19.6341 23.4072 20.2112 24.1189 20.2112Z" fill="#295C7A"/>
<path d="M29.1133 24.0789C29.1133 23.3669 28.5363 22.7898 27.8243 22.7898H24.1189C23.4072 22.7898 22.8298 23.3669 22.8298 24.0789C22.8298 24.7909 23.4072 25.3679 24.1189 25.3679H27.8243C28.5363 25.3679 29.1133 24.7909 29.1133 24.0789Z" fill="#295C7A"/>
<path d="M41.3248 33.7333C40.7696 33.2879 39.9586 33.3768 39.5127 33.9321L36.1927 38.0712L34.1373 36.582C33.5609 36.1641 32.7546 36.293 32.337 36.8694C31.9194 37.4461 32.0483 38.2521 32.6246 38.6697L35.6738 40.8789C35.902 41.0441 36.1666 41.1243 36.4294 41.1243C36.8077 41.1243 37.1817 40.9581 37.4355 40.6416L41.5239 35.5454C41.9694 34.9902 41.8804 34.1788 41.3248 33.7333Z" fill="#295C7A"/>
<path d="M44.5831 29.7762C42.904 28.0675 40.7465 26.9906 38.4087 26.6734V9.1915C38.4087 6.32904 36.0797 4 33.2172 4H10.6918C7.82904 4 5.5 6.32904 5.5 9.1915V39.0524C5.5 41.9152 7.82904 44.2443 10.6915 44.2443H28.8085C30.8472 46.6391 33.7785 48 36.9498 48C42.8529 48 47.6554 43.1942 47.6554 37.287C47.6554 34.4591 46.5644 31.7917 44.5831 29.7762ZM8.07812 39.0524V9.1915C8.07812 7.7507 9.2507 6.57812 10.6918 6.57812H33.2172C34.6583 6.57812 35.8306 7.7507 35.8306 9.1915V26.6324C30.4514 27.1941 26.2442 31.7578 26.2442 37.287C26.2442 38.8195 26.5638 40.3012 27.1767 41.6658H10.6918C9.2507 41.6658 8.07812 40.4936 8.07812 39.0524ZM36.9498 45.4219C34.3753 45.4219 32.0087 44.2399 30.4561 42.1794C29.3873 40.7604 28.822 39.0689 28.822 37.287C28.822 32.8015 32.4683 29.1522 36.9498 29.1522C36.9921 29.1522 37.0347 29.1528 37.077 29.1535L37.0968 29.1538C39.2362 29.1918 41.2419 30.0545 42.7445 31.5833C44.2487 33.1137 45.0772 35.1396 45.0772 37.287C45.0772 41.7726 41.4313 45.4219 36.9498 45.4219Z" fill="#295C7A"/>
</g>
<defs>
<clipPath id="clip0_1081_584">
<rect width="42.1953" height="44" fill="white" transform="translate(5.5 4)"/>
</clipPath>
</defs>
</svg>
